<svg width="48" height="48" xmlns="http://www.w3.org/2000/svg"><g fill="#FFF" fill-rule="evenodd"><path d="M24 48c23.815 0 24-10.745 24-24S47.815 0 24 0 0 10.745 0 24s.185 24 24 24z" fill-rule="nonzero" opacity=".3"/><path d="M24 13.5c7.352 0 13.332 5.877 13.497 13.19l.003.31-11.701-.001v2.7L37.4 29.7a1 1 0 011 1v3.4a1 1 0 01-1 1H10.6a1 1 0 01-1-1v-3.4a1 1 0 011-1l11.599-.001v-2.7L10.5 27l.003-.31C10.668 19.377 16.648 13.5 24 13.5zm3.1-3.6a.5.5 0 01.5.5v.8a.5.5 0 01-.5.5h-1.301l.001 1.8h-3.6l-.001-1.8H20.9a.5.5 0 01-.5-.5v-.8a.5.5 0 01.5-.5h6.2z"/></g></svg>