<svg xmlns="http://www.w3.org/2000/svg" width="48" height="48"><g fill="#FFF"><path d="M24 48c23.815 0 24-10.745 24-24S47.815 0 24 0 0 10.745 0 24s.185 24 24 24z" opacity=".3"/><path d="M24 8.727c8.435 0 15.273 6.838 15.273 15.273 0 8.435-6.838 15.273-15.273 15.273-8.435 0-15.273-6.838-15.273-15.273 0-8.435 6.838-15.273 15.273-15.273zm.967 18.328h-1.934a.552.552 0 00-.553.472l-.007.092v5.545h3.054v-5.545a.559.559 0 00-.56-.564zm-6.094-9.164H16.91a.545.545 0 00-.538.457l-.007.088v5.019c0 .27.197.496.456.538l.089.007h1.964c.271 0 .496-.198.538-.457l.007-.088v-5.02a.545.545 0 00-.545-.544zm12.218 0h-1.964a.545.545 0 00-.545.545v5.019c0 .301.244.545.545.545h1.964a.545.545 0 00.545-.545v-5.02a.545.545 0 00-.545-.544z"/></g></svg>