<svg xmlns="http://www.w3.org/2000/svg" xmlns:xlink="http://www.w3.org/1999/xlink" width="48" height="48"><defs><path id="a" d="M7.831 1.65L17.25.656l9.419.994s7.292 9.77 7.292 9.628c0 .143-16.711 19.566-16.711 19.566L.54 11.278 7.83 1.65z"/></defs><g fill="none" fill-rule="evenodd"><path fill="#FFF" d="M24 48c23.815 0 24-10.745 24-24S47.815 0 24 0 0 10.745 0 24s.185 24 24 24z"/><g transform="translate(6.682 8.727)"><mask id="b" fill="#fff"><use xlink:href="#a"/></mask><use fill="#FDB300" xlink:href="#a"/><g mask="url(#b)"><path fill="#EA6C00" d="M7.309 11.278l9.942 19.566L.54 11.278zM27.193 11.278l-9.942 19.566 16.711-19.566z"/><path fill="#FDAD00" d="M7.309 11.278h19.884l-9.942 19.566z"/></g><g mask="url(#b)"><path fill="#FDD231" d="M17.251.656l-9.419.994-.523 9.628zM17.251.656l9.419.994.523 9.628z"/><path fill="#FDAD00" d="M33.962 11.278L26.67 1.65l.522 9.628zM.54 11.278L7.832 1.65l-.523 9.628z"/><path fill="#FEEEB7" d="M17.251.656L7.309 11.278h19.882z"/></g></g></g></svg>