<svg xmlns="http://www.w3.org/2000/svg" width="48" height="48"><g fill="none"><path fill="#44D7B6" d="M24 48C.185 48 0 37.255 0 24S.185 0 24 0s24 10.745 24 24-.185 24-24 24z"/><path fill="#FFF" d="M13 30a2 2 0 01.15 3.995L13 34l-.15-.005A2 2 0 0113 30zm23 1a1 1 0 010 2H19a1 1 0 010-2zm-23-9a2 2 0 01.15 3.995L13 26l-.15-.005A2 2 0 0113 22zm23 1a1 1 0 01.117 1.993L36 25H19a1 1 0 01-.117-1.993L19 23h17zm-23-9a2 2 0 011.995 1.85L15 16l-.005.15a2 2 0 01-1.838 1.844L13 18l-.15-.005a2 2 0 01-1.844-1.838L11 16l.005-.15A2 2 0 0113 14zm23 1a1 1 0 01.117 1.993L36 17H19a1 1 0 01-.117-1.993L19 15h17z"/></g></svg>