<svg width="48" height="48" xmlns="http://www.w3.org/2000/svg"><g fill="none" fill-rule="evenodd"><path d="M24 47.824c23.815 0 24-10.706 24-23.912S47.815 0 24 0 0 10.706 0 23.912s.185 23.912 24 23.912z" fill="#FB8332"/><path d="M14.424 8.182h8.01c1.044 0 1.914.363 2.61 1.09l9.913 9.298c.695.711 1.043 1.612 1.043 2.703v14.962c0 1.376-1.085 2.492-2.424 2.492H14.424c-1.339 0-2.424-1.116-2.424-2.492v-25.56c0-1.377 1.085-2.493 2.424-2.493z" fill="#FFF"/><path d="M22.864 8.182c1.197 0 2.31 0 3.85 1.54l7.7 7.7c1.54 1.54 1.54 2.054 1.54 3.85 0-.77-.77-2.31-3.08-2.31h-5.403a2.3 2.3 0 01-2.297-2.305v-5.395c0-2.31-1.54-3.08-2.31-3.08z" fill="#FCA266"/><path d="M21.233 19.924L24 19.636l2.767.288 2.142 2.824L24 28.364l-4.91-5.616 2.143-2.824z" fill="#C85000"/></g></svg>