<svg xmlns="http://www.w3.org/2000/svg" width="48" height="48"><g fill="none"><path fill="#815EFF" d="M24 48c23.815 0 24-10.745 24-24S47.815 0 24 0 0 10.745 0 24s.185 24 24 24z"/><path fill="#4E2BCC" d="M8.727 17.455h30.546v16.363A2.182 2.182 0 0137.09 36H10.909a2.182 2.182 0 01-2.182-2.182V17.455z"/><path fill="#FFF" d="M19.396 24.851l-2.148 2.15 2.149 2.148a.818.818 0 01-1.158 1.157l-2.727-2.727a.818.818 0 010-1.157l2.727-2.727a.818.818 0 011.158 1.156zm5.18-2.979a.818.818 0 011.576.438l-2.727 9.818a.818.818 0 01-1.577-.438l2.727-9.818zm4.027 7.277L30.753 27l-2.15-2.149a.818.818 0 111.158-1.156l2.727 2.727c.32.32.32.837 0 1.157l-2.727 2.727a.818.818 0 01-1.158-1.157zM10.91 12h26.182c1.205 0 2.182.977 2.182 2.182v3.273H8.727v-3.273c0-1.205.977-2.182 2.182-2.182zm.546 3.818a1.09 1.09 0 100-2.182 1.09 1.09 0 000 2.182zm3.272 0a1.09 1.09 0 100-2.182 1.09 1.09 0 000 2.182zm3.273 0a1.09 1.09 0 100-2.182 1.09 1.09 0 000 2.182z"/></g></svg>