<svg xmlns="http://www.w3.org/2000/svg" width="48" height="49"><g fill="none"><path fill="#0091FF" d="M24 48c23.815 0 24-10.745 24-24S47.815 0 24 0 0 10.745 0 24s.185 24 24 24z"/><path fill="#FFF" fill-opacity=".2" d="M24 48c23.815 0 24-10.745 24-24S47.815 0 24 0 0 10.745 0 24s.185 24 24 24z"/><path fill="#0074CC" d="M16 18.613C17.005 14.28 21.727 11 27.401 11 33.807 11 39 15.18 39 20.337c0 2.845-1.58 5.393-4.073 7.105.054 1.316.566 2.267 1.535 2.854 1.633.99-2.788 1.193-5.36-1.107l-.148.039c.34-.84.523-1.736.523-2.666 0-4.813-4.913-8.715-10.972-8.715-1.606 0-3.13.274-4.505.766z"/><path fill="#0074CC" d="M14 22h13v9H14z"/><path fill="#FFF" d="M20.5 35.674a13.93 13.93 0 01-3.67-.485c-2.55 2.3-6.932 2.097-5.314 1.107.961-.587 1.469-1.538 1.523-2.854C10.567 31.73 9 29.182 9 26.337 9 21.18 14.149 17 20.5 17S32 21.18 32 26.337s-5.149 9.337-11.5 9.337zM16 23a1 1 0 000 2h9a1 1 0 000-2h-9zm0 4a1 1 0 000 2h6a1 1 0 000-2h-6z"/></g></svg>