<svg width="48" height="48" xmlns="http://www.w3.org/2000/svg"><g fill="#FFF" fill-rule="evenodd"><path d="M24 48c23.815 0 24-10.745 24-24S47.815 0 24 0 0 10.745 0 24s.185 24 24 24z" fill-rule="nonzero" opacity=".30000001"/><path d="M24 13.5c7.3522907 0 13.3318345 5.8774286 13.4965146 13.1901692L37.5 27l-11.701-.001v2.7L37.4 29.7c.5522847 0 1 .4477153 1 1v3.4c0 .5522847-.4477153 1-1 1H10.6c-.5522847 0-1-.4477153-1-1v-3.4c0-.5522847.4477153-1 1-1l11.599-.001v-2.7L10.5 27l.0034854-.3098308C10.6681655 19.3774286 16.6477093 13.5 24 13.5zm3.1-3.6c.2761424 0 .5.2238576.5.5v.8c0 .2761424-.2238576.5-.5.5h-1.301l.001 1.8h-3.6l-.001-1.8H20.9c-.2761424 0-.5-.2238576-.5-.5v-.8c0-.2761424.2238576-.5.5-.5h6.2z"/></g></svg>